# xmcd
#
# Track frame offsets:
#	150
#	39736
#	52247
#	84621
#	109126
#	123472
#	168110
#
# Disc length: 2855 seconds
#
# Revision: 0
# Processed by: cddbd v1.5.2PL0 Copyright (c) Steve Scherf et al.
# Submitted via: EZCDAudioConverter 2.1.7.1
#
DISCID=5c0b2507
DTITLE=Nathan Bowles - Nansemond
DYEAR=1900
DGENRE=
TTITLE0=Sleepy Lake Bike Club
TTITLE1=The Smoke Swallower
TTITLE2=Jonah - Poor Liza Jane
TTITLE3=Chuckatuck
TTITLE4=J.H. For M.P.
TTITLE5=Golden Floaters - Hog Jank
TTITLE6=Sleepy Lake Tire Swing
EXTD=
EXTT0=
EXTT1=
EXTT2=
EXTT3=
EXTT4=
EXTT5=
EXTT6=
PLAYORDER=
